<?xml version="1.0" encoding="utf-8"?>
<!-- Generator: Adobe Illustrator 27.4.0, SVG Export Plug-In . SVG Version: 6.00 Build 0)  -->
<svg version="1.1" id="Layer_1" xmlns="http://www.w3.org/2000/svg" xmlns:xlink="http://www.w3.org/1999/xlink" x="0px" y="0px"
	 viewBox="0 0 507 140" style="enable-background:new 0 0 507 140;" xml:space="preserve">
<style type="text/css">
	.st0{fill:#153D89;}
	.st1{fill:#A1C53A;}
</style>
<g>
	<g>
		<path class="st0" d="M471.5,118.2h4v-8.6c0-2.6,1.5-4.5,3.9-4.5c2.3,0,3.7,1.6,3.7,4.1v8.9h4v-10.2c0-4.5-3.7-6.3-6.2-6.3
			s-4.3,1.1-5.4,2.7v-2.2h-4V118.2z M459.2,115.3c-2.7,0-4.9-2.3-4.9-5.1s2.2-5.1,4.9-5.1c2.7,0,4.9,2.3,4.9,5.1
			S461.9,115.3,459.2,115.3 M459.2,118.7c5.1,0,8.9-3.8,8.9-8.5s-3.9-8.5-8.9-8.5s-8.9,3.9-8.9,8.5
			C450.2,114.9,454.1,118.7,459.2,118.7 M442.3,118.2h4.1v-16h-4.1V118.2z M444.4,98.7c1.4,0,2.4-1.1,2.4-2.4s-1-2.3-2.4-2.3
			c-1.3,0-2.4,1-2.4,2.3S443.1,98.7,444.4,98.7 M435.3,118.4c1.1,0,2.6-0.2,3.2-0.5l-0.1-3.1c-0.6,0.1-1.4,0.2-1.9,0.2
			c-2,0-2.8-1-2.8-2.5v-7h4.7v-3.3h-4.7v-5.9h-4v5.9h-2.9v3.3h2.8v7.5C429.6,116.4,431.9,118.4,435.3,118.4 M415.1,115.7
			c-2,0-3.2-1.1-3.2-2.4c0-1.4,1.5-2.8,4.1-2.8c1.1,0,2.6,0.3,4,0.9C420,113.4,418.1,115.7,415.1,115.7 M414.3,118.7
			c2.4,0,4.5-1.1,5.7-2.9v2.4h4.1V109c0-4.8-2.5-7.3-7.8-7.3c-2.3,0-4.8,0.5-6.6,1.5l0.9,2.7c1.2-0.7,3.4-1.2,5.2-1.2
			c2.9,0,4.2,1.2,4.2,4.2c-1.4-0.7-3-0.9-4.6-0.9c-5,0-7.4,3-7.4,5.6C408.1,116.3,410.8,118.7,414.3,118.7 M400.1,118.2h4.1v-16
			h-4.1V118.2z M402.1,98.7c1.4,0,2.4-1.1,2.4-2.4s-1-2.3-2.4-2.3c-1.3,0-2.4,1-2.4,2.3C399.8,97.6,400.9,98.7,402.1,98.7
			 M389.7,118.7c2.8,0,4.8-1,6.7-2.6l-1.8-2.7c-1.5,1.2-3.1,2-4.9,2c-3,0-5.1-2.4-5.1-5.1c0-2.8,2.2-5.1,5.2-5.1
			c1.5,0,3.4,0.6,4.8,1.8l1.8-2.6c-1.8-1.6-4.2-2.6-6.8-2.6c-5.2,0-9,3.9-9,8.6C380.5,114.9,384.3,118.7,389.7,118.7 M369,115.3
			c-2.7,0-4.9-2.3-4.9-5.1s2.2-5.1,4.9-5.1c2.7,0,4.9,2.3,4.9,5.1S371.7,115.3,369,115.3 M369,118.7c5.1,0,8.9-3.8,8.9-8.5
			s-3.9-8.5-8.9-8.5s-8.9,3.9-8.9,8.5C360,114.9,363.9,118.7,369,118.7 M351.1,118.7c3.7,0,7-1.7,7-5.1s-3.2-4.5-5.9-5.3
			c-1.9-0.6-3.4-1.1-3.4-2.3c0-0.9,1-1.5,2.4-1.5c1.5,0,3,0.6,3.9,1.7l2.3-1.8c-1.3-1.8-3.6-2.8-6.3-2.8c-3.5,0-6,1.8-6,4.7
			c0,3.2,2.7,4.2,5.5,5.1c1.9,0.6,3.6,1.1,3.6,2.4c0,1.1-1.2,1.8-3.1,1.8c-1.8,0-3.7-0.7-4.7-2.1l-2.3,1.8
			C345.5,117.5,348,118.7,351.1,118.7 M335,118.7c3.7,0,7-1.7,7-5.1s-3.2-4.5-5.9-5.3c-1.9-0.6-3.4-1.1-3.4-2.3c0-0.9,1-1.5,2.4-1.5
			c1.5,0,3,0.6,3.9,1.7l2.3-1.8c-1.3-1.8-3.6-2.8-6.3-2.8c-3.5,0-6,1.8-6,4.7c0,3.2,2.7,4.2,5.5,5.1c1.9,0.6,3.6,1.1,3.6,2.4
			c0,1.1-1.2,1.8-3.1,1.8c-1.8,0-3.7-0.7-4.7-2.1l-2.3,1.8C329.4,117.5,331.9,118.7,335,118.7 M310.7,110.7l4.3-10.8l4.3,10.8H310.7
			z M303.4,118.2h4.3l1.7-4.2h11.2l1.7,4.2h4.3l-11.2-24.9h-0.8L303.4,118.2z"/>
		<path class="st0" d="M453.8,83.4h4v-8.6c0-2.6,1.5-4.5,3.9-4.5c2.3,0,3.7,1.6,3.7,4.1v8.9h4V73.1c0-4.5-3.7-6.3-6.2-6.3
			s-4.3,1.1-5.4,2.7v-2.2h-4V83.4L453.8,83.4z M441.4,80.5c-2.7,0-4.9-2.3-4.9-5.1s2.2-5.1,4.9-5.1c2.7,0,4.9,2.3,4.9,5.1
			C446.4,78.2,444.2,80.5,441.4,80.5 M441.4,83.9c5.1,0,8.9-3.8,8.9-8.5s-3.9-8.5-8.9-8.5s-8.9,3.9-8.9,8.5
			C432.5,80.1,436.4,83.9,441.4,83.9 M424.6,83.4h4.1v-16h-4.1V83.4z M426.6,63.9c1.4,0,2.4-1.1,2.4-2.4s-1-2.3-2.4-2.3
			c-1.3,0-2.4,1-2.4,2.3C424.3,62.8,425.4,63.9,426.6,63.9 M417.6,83.6c1.1,0,2.6-0.2,3.2-0.5l-0.1-3.1c-0.6,0.1-1.4,0.2-1.9,0.2
			c-2,0-2.8-1-2.8-2.5v-7h4.7v-3.3H416v-5.9h-4v5.9h-2.9v3.3h2.8v7.5C411.9,81.6,414.2,83.6,417.6,83.6 M400.1,83.9
			c2.8,0,4.8-1,6.7-2.6l-1.8-2.7c-1.5,1.2-3.1,2-4.9,2c-3,0-5.1-2.4-5.1-5.1c0-2.8,2.2-5.1,5.2-5.1c1.5,0,3.4,0.6,4.8,1.8l1.8-2.6
			C405,68,402.6,67,400,67c-5.2,0-9,3.9-9,8.6C391,80.1,394.7,83.9,400.1,83.9 M375.4,73.9c0.5-2.4,2.4-4,4.7-4c2.3,0,3.9,1.5,4.5,4
			H375.4z M380.4,83.9c2.9,0,5.4-1,7.3-2.8l-1.9-2.4c-1.6,1.3-3.5,2.1-5.4,2.1c-2.7,0-4.6-1.8-5.1-4.2h13.1c0.1-0.5,0.1-0.7,0.1-1.3
			c0-4.5-3.3-8.5-8.4-8.5c-5,0-8.9,3.8-8.9,8.6C371.2,80.1,374.8,83.9,380.4,83.9 M365.8,83.6c1.1,0,2.6-0.2,3.2-0.5l-0.1-3.1
			c-0.6,0.1-1.4,0.2-1.9,0.2c-2,0-2.8-1-2.8-2.5v-7h4.7v-3.3h-4.7v-5.9h-4v5.9h-2.9v3.3h2.8v7.5C360.1,81.6,362.4,83.6,365.8,83.6
			 M346.2,80.5c-2.7,0-4.9-2.3-4.9-5.1s2.2-5.1,4.9-5.1c2.7,0,4.9,2.3,4.9,5.1C351.2,78.2,349,80.5,346.2,80.5 M346.2,83.9
			c5.1,0,8.9-3.8,8.9-8.5s-3.9-8.5-8.9-8.5s-8.9,3.9-8.9,8.5C337.3,80.1,341.2,83.9,346.2,83.9 M325,83.4h4v-7.3
			c0-3.1,2.1-5.3,6.1-5.3h0.3l0.1-3.9c-2.9,0-5.1,1.2-6.5,3.2v-2.7h-4V83.4z M309.5,71.9v-9.4h3.2c3.7,0,5.5,2.1,5.5,4.7
			c0,2.6-1.8,4.7-5.5,4.7H309.5z M305.3,83.4h4.2v-8.2h3.4c5.9,0,9.5-3.5,9.5-8s-3.5-8.1-9.5-8.1h-7.6V83.4z"/>
		<path class="st0" d="M454.8,48.7h4v-7.3c0-3.1,2.1-5.3,6.1-5.3h0.3l0.1-3.9c-2.9,0-5.1,1.2-6.5,3.2v-2.7h-4V48.7z M438.4,39.1
			c0.5-2.4,2.4-4,4.7-4c2.3,0,3.9,1.5,4.5,4H438.4z M443.5,49.1c2.9,0,5.4-1,7.3-2.8l-1.9-2.4c-1.6,1.3-3.5,2.1-5.4,2.1
			c-2.7,0-4.6-1.8-5.1-4.2h13.1c0.1-0.5,0.1-0.7,0.1-1.3c0-4.5-3.3-8.5-8.5-8.5c-5,0-8.9,3.8-8.9,8.6
			C434.2,45.3,437.8,49.1,443.5,49.1 M405,48.7h4v-8.4c0-2.8,1.5-4.6,3.7-4.6c2.1,0,3.1,1.6,3.1,4.1v8.9h4V40c0-2.6,1.3-4.4,3.5-4.4
			c2.1,0,3.4,1.6,3.4,4.1v8.9h4V38.5c0-4.5-3.2-6.3-6.1-6.3c-2.4,0-4.3,1.3-5.5,3.3c-1-2.3-3.1-3.3-5.1-3.3c-2.2,0-3.9,1.1-5.1,2.9
			v-2.4h-4v16H405z M391.3,49.1c2.5,0,4.2-1.1,5.4-2.7v2.3h4v-16h-4v8.6c0,2.6-1.5,4.5-3.9,4.5c-2.3,0-3.7-1.6-3.7-4.2v-8.9h-4v10.2
			C385.1,47.4,388.8,49.1,391.3,49.1 M375,49.2c3.7,0,7-1.7,7-5.1c0-3.4-3.2-4.5-5.9-5.3c-1.9-0.6-3.4-1.1-3.4-2.3
			c0-0.9,1-1.5,2.4-1.5c1.5,0,3,0.6,3.9,1.7l2.3-1.8c-1.3-1.8-3.6-2.8-6.3-2.8c-3.5,0-6,1.8-6,4.7c0,3.2,2.7,4.2,5.5,5.1
			c1.9,0.6,3.6,1.1,3.6,2.4c0,1.1-1.2,1.8-3.1,1.8c-1.8,0-3.7-0.7-4.7-2.1l-2.3,1.8C369.4,48,371.9,49.2,375,49.2 M349.2,48.7h4
			v-8.6c0-2.6,1.5-4.5,3.9-4.5c2.3,0,3.7,1.6,3.7,4.1v8.9h4V38.5c0-4.5-3.7-6.3-6.2-6.3s-4.3,1.1-5.4,2.7v-2.2h-4V48.7z M336.8,45.8
			c-2.7,0-4.9-2.3-4.9-5.1c0-2.8,2.2-5.1,4.9-5.1c2.7,0,4.9,2.3,4.9,5.1C341.7,43.4,339.5,45.8,336.8,45.8 M336.8,49.1
			c5.1,0,8.9-3.8,8.9-8.5s-3.9-8.5-8.9-8.5s-8.9,3.9-8.9,8.5S331.8,49.1,336.8,49.1 M317,49.2c3.7,0,6.7-1.5,9.1-3.9l-2.1-3
			c-1.6,1.5-4,3.1-7.1,3.1c-4.7,0-8.3-3.7-8.3-9c0-5.2,3.6-9,8.3-9c2.4,0,4.7,1,6.6,2.6l2.1-2.9c-2.3-2.3-5.4-3.4-8.7-3.4
			c-7.1,0-12.6,5.4-12.6,12.8C304.4,43.9,309.9,49.2,317,49.2"/>
	</g>
	<polygon class="st0" points="226.8,19.6 179.9,118.2 202.6,118.2 227.8,57.3 252.8,118.2 275.6,118.2 228.7,19.6 	"/>
	<path class="st0" d="M19.8,70.1c0-29.1,22.3-50.3,51.6-50.3c12.9,0,25.2,4.2,34.5,13.1L94.8,48.5c-7-5.6-15.3-9-23.8-9
		c-17,0-29,13.3-29,30.6c0,18.1,12.7,30.5,29,30.5c10.3,0,19.4-5.1,26-10.8l10.7,15.9c-9.6,9.3-22.2,14.6-36.5,14.6
		C42.1,120.4,19.8,99.4,19.8,70.1"/>
	<path class="st0" d="M119,22.4h33.2c24.4,0,39.4,14.4,39.4,33.1c0,18.9-15.2,33-39.7,33h-11.1v29.7h-21.9L119,22.4L119,22.4z
		 M150,71.4c14.2,0,19.3-8.2,19.3-16s-5.2-15.9-19.3-15.9h-9.2v31.9H150z"/>
	<path class="st1" d="M289.1,55.9c-26.9,5.5-53.4,18.6-77,39.2c-9.7-3.5-12.4-4.3-19-6.6c-2.4-0.8-3,1.7-2,3
		c6.2,8.1,12.5,16.1,19,23.9c0.8,1,1.6,1.9,2.4,2.9c0.9,1,2.3,0.9,3.1-0.2c0.9-1.2,1.8-2.4,2.7-3.6c19.4-25.6,43.9-45.1,71.2-56.7
		C290.5,57.3,290,55.6,289.1,55.9"/>
	<polygon class="st0" points="226.8,19.6 227.8,57.3 252.8,118.2 275.6,118.2 228.7,19.6 	"/>
</g>
</svg>
